<svg xmlns="http://www.w3.org/2000/svg" viewBox="0 0 512 512" width="32" height="32" fill="white">
  <path d="M349.33 69.33H162.67C101.07 69.33 54.67 115.73 54.67 177.33v186.67c0 61.6 46.4 108 108 108h186.67c61.6 0 108-46.4 108-108V177.33c0-61.6-46.4-108-108-108zm72 294.67c0 39.77-32.23 72-72 72H162.67c-39.77 0-72-32.23-72-72V177.33c0-39.77 32.23-72 72-72h186.67c39.77 0 72 32.23 72 72v186.67zm-186.67-186.67a93.33 93.33 0 1 0 93.33 93.33 93.42 93.42 0 0 0-93.33-93.33zm0 154.67a61.33 61.33 0 1 1 61.33-61.33 61.38 61.38 0 0 1-61.33 61.33zm104-157.33a21.33 21.33 0 1 1-21.33-21.33 21.33 21.33 0 0 1 21.33 21.33z"/>
</svg>
