<svg xmlns="http://www.w3.org/2000/svg" viewBox="0 0 576 512" width="32" height="32" fill="white">
  <path d="M549.655 124.083c-6.281-23.65-24.811-42.097-48.541-48.458C458.31 64 288 64 288 64s-170.31 0-213.114 11.625c-23.73 6.361-42.26 24.808-48.541 48.458C16 167.888 16 255.997 16 255.997s0 88.11 10.345 131.914c6.281 23.65 24.811 42.097 48.541 48.458C117.69 448 288 448 288 448s170.31 0 213.114-11.625c23.73-6.361 42.26-24.808 48.541-48.458 10.345-43.804 10.345-131.914 10.345-131.914s0-88.11-10.345-131.914zM232 334.06V177.94l142 78.06-142 78.06z"/>
</svg>
